<?xml version="1.0" encoding="UTF-8"?>
<svg version="1.1" viewBox="0 0 880 916" width="220" height="229" xmlns="http://www.w3.org/2000/svg">
<path transform="translate(424,165)" d="m0 0 27 1 4 13 4 19 4 24 1 3 6-1 15-7 21-10 27-12 8-3 12 5 18 10 11 8 5 2 1-3 3-3 2-3 8-1 10-2 2-2 1-6v-12l2-14 1-2h36l5 2 2 59 2 43 1 33 1 18 2 6 3 1 8-6 11-11h2v-2h2l2-4h2v109l11 1 3 3-2 18-4 2-1 3-3 1v3h5l-6 14-1 7 16 1 4 9 1 18-2 1-4-19-2-4-12 1-1 3-1 35v17l2 11 3 6-4 2-1 14v39l-13 1-93 1-2 3 1 6 8 17 5 13v5l-32 18-16 7-6-1-11-9-15-15-3-2v-2l-4-2-9-8-9-14v-2l-5-2-9-1h-9l-3 1-3 8-5 32-2 27 3 5 13 8 3 5 14 5 11 4 7 4 13 4 5 4v9l-3 18-1 13-4 15-6 25-7 27-9 21-10 21-12 18-8 8-12 9-8 4-5 5h-10l-10-6-13-7-13-13-14-24-10-21-7-19-4-17-7-27-5-26-1-8v-24l3-4 16-5 16-8 10-4 6-5-1-7-9-17-14-21-8-13v-8l-3-7-2-1-12 6-6 7-7 13-12 17-3 4-5-1-17-8-18-11-8-7-14-38-8-27-2-4-9 1-18 7-9 2-6-7-12-18-9-17-2-13v-27l5-6 19-13 11-8 2-7-3-1-53-2-4-1-1-8v-33l1-19 2-6 9-2 17-2 18-1 7-2 4-6 2-12v-6l-1-4-4-2-10-8-16-10-6-7-1-7 5-10 12-22 7-11 3-3 8 1 18 6 18 8 5 1 2-7-11-30-1-7 9-17 12-16 9-7 17-10 17-9 7 6 8 10 7 7 4-2 14-15 11-9 12-11 11-9 8-7 3-1zm157 56-1 7-12 30-7 17-2 7 1 7 8 9 10 8 4-1 2-9 3-35 2-12 1-20-6-8zm118 197-2 1v9l2 11 4 1 4-15 1-4-2-2zm-261 325-1 3 9 13 10 6-1 6-4 5-1 9-6 2-10 8-7 8-7 17-1 5v23l2 8 2 6h9l2 1h15l5-3 2-1 2 1h8l2-1v-3l-5-2 3-5 3-7v-8l-5-5-2-1h-6l-7 5 6-7 2-9h2l2 6 2 1h6l1-12v-14l-2-7 6 1 8-3 2-2v-12l-6-8-5-4-10-4h-2l-2-4-5-5-9-6z" fill="#C8C8C8"/>
<path transform="translate(424,165)" d="m0 0 27 1 4 13 4 19 4 24 1 3 6-1 15-7 21-10 27-12 8-3 12 5 18 10 11 8 5 2 1-2v3h-3l1 5-5-2 1 5-11 27-9 22-2 7 1 7 7 8 10 8h4l-2 13v7l-4 6-8 7h-2l-1 3-8 7-14 12-12 10-8 7-5 5h-2l-1 4h-2l1-6 2-5-1-48 1-32 2-10 3-9 1-9-6-1-36-1-19 1-1 1v10l2 11-4 5-4 4-5 2h-8l-6-2-7-1-7-3-4-1-26-1-4-1h-13l-6-1-20 1-4 2-14 3-16 8-9 6-8 4-12 5-6 7-7 13-10 20-5 8-5 4-4 8-1 4h-2l-1 11-2 6-2 9v9l3 15 1 12 1 1 1 17-3 14 2 2v3l2 1 5 7v2l3 1 7 8 5 8 4 9 8 11 9 7 5 5 11 7 7 3 15 8 22 8 11 1h52l24-7 9-3 10-2 4-1v-2l6-6v-13l3-1 3 3 2 1 2-4 3 2 10 26 4 11 3 10 6 16 4 7 17 2 23 1h40l6-2-1 6 9 20 5 13v5l-32 18-16 7-6-1-11-9-15-15-3-2v-2l-4-2-9-8-9-14v-2l-5-2-9-1h-9l-3 1-3 8-5 32-2 27 3 5 13 8 3 5 14 5 11 4 7 4 13 4 5 4v9l-3 18-1 13-4 15-6 25-7 27-9 21-10 21-12 18-8 8-12 9-8 4-5 5h-10l-10-6-13-7-13-13-14-24-10-21-7-19-4-17-7-27-5-26-1-8v-24l3-4 16-5 16-8 10-4 6-5-1-7-9-17-14-21-8-13v-8l-3-7-2-1-12 6-6 7-7 13-12 17-3 4-5-1-17-8-18-11-8-7-14-38-8-27-2-4-9 1-18 7-9 2-6-7-12-18-9-17-2-13v-27l5-6 19-13 11-8 2-7-3-1-53-2-4-1-1-8v-33l1-19 2-6 9-2 17-2 18-1 7-2 4-6 2-12v-6l-1-4-4-2-10-8-16-10-6-7-1-7 5-10 12-22 7-11 3-3 8 1 18 6 18 8 5 1 2-7-11-30-1-7 9-17 12-16 9-7 17-10 17-9 7 6 8 10 7 7 4-2 14-15 11-9 12-11 11-9 8-7 3-1zm14 578-1 3 9 13 10 6-1 6-4 5-1 9-6 2-10 8-7 8-7 17-1 5v23l2 8 2 6h9l2 1h15l5-3 2-1 2 1h8l2-1v-3l-5-2 3-5 3-7v-8l-5-5-2-1h-6l-7 5 6-7 2-9h2l2 6 2 1h6l1-12v-14l-2-7 6 1 8-3 2-2v-12l-6-8-5-4-10-4h-2l-2-4-5-5-9-6z" fill="#AAACAD"/>
<path transform="translate(617,169)" d="m0 0h36l5 2 2 59 2 43 1 33 1 18 2 6 3 1 8-6 11-11h2v-2h2l2-4h2v109l11 1 3 3-2 18-4 2-1 3-3 1v3h5l-6 14-1 7 16 1 4 9 1 18-2 1-4-19-2-4-12 1-1 3-1 35v17l2 11 3 6-4 2-1 14v39l-13 1-93 1-8 3h-39l-27-1-13-2-6-10-7-19-3-10-12-32-13-6-12-5-1-2 9 3 13 4 9-3 10-1h15l17-4 8-4 5-3 10-8 5-6 8-17 4-16v-21l-3-16-7-14-8-10-9-6-5-3-17-5-3-3v-8h1v6h3l1-4 8-7 9-8 11-9 10-9 8-7 7-6 8-7 2-6 1-10 3-17 3-35 2-12 1-20-4-8v-3h3v-4l3-3 2-3 8-1 10-2 2-2 1-6v-12l2-14zm82 249-2 1v9l2 11 4 1 4-15 1-4-2-2z" fill="#D4794E"/>
<path transform="translate(453,681)" d="m0 0 1 2 4 2 5 5 5 1 10 6 3 5 14 5 11 4 7 4 13 4 5 4v9l-3 18-1 13-4 15-6 25-7 27-9 21-10 21-12 18-8 8-12 9-8 4-5 5h-10l-10-6-13-7-13-13-14-24-10-21-7-19-4-17-7-27-5-26-1-8v-24l3-4 16-5 16-8 10-4 6-5 2-3h5l8-5h2l2-4 4-3 12-1h14zm-15 62-1 3 9 13 10 6-1 6-4 5-1 9-6 2-10 8-7 8-7 17-1 5v23l2 8 2 6h9l2 1h15l5-3 2-1 2 1h8l2-1v-3l-5-2 3-5 3-7v-8l-5-5-2-1h-6l-7 5 6-7 2-9h2l2 6 2 1h6l1-12v-14l-2-7 6 1 8-3 2-2v-12l-6-8-5-4-10-4h-2l-2-4-5-5-9-6z" fill="#E9AE61"/>
<path transform="translate(393,339)" d="m0 0h17l7 2 10 9 7 11 6 13 1 6h2l2 11 1 12v27l-3 17-5 15-1 7 4 9 2 8v12l-5 10-7 5-11 6-9 4-15 4h-14l-15-3-12-4-14-7-11-8-8-6-13-17-8-15-4-14v-17l3-9 4-7 11-10 10-6 4-2 18-1 4-2 3-18 4-12 8-16 10-9 10-4z" fill="#873F3B"/>
<path transform="translate(461,267)" d="m0 0h58l1 1v6l-6 16-1 24-1 74 5 3 14 4 10 6 8 7 7 10 5 11 3 16v21l-4 16-8 17-9 10-8 6-12 6-17 4h-20l-9 3-5 1-13-4-19-8-3-2v-5l5-12v-12l-2-12-2-5v-6l5-11 4-13 1-14v-34l15-4 4-1 1-6v-44l-1-47-5-10-1-4z" fill="#F9EDA2"/>
<path transform="translate(617,169)" d="m0 0h36l5 2 2 59 2 43 1 33 1 18 2 6 3 4-2 3h-2l-2 4-7 7-3 5-6 5-7 8-5 5-10 8-13 13-4-2-1-74-1-3-5 2-12 11-7 4-13 12-13 10-13 11-11 10-7 6-4 5-2 2h-4l1-4 8-7 9-8 11-9 10-9 8-7 7-6 8-7 2-6 1-10 3-17 3-35 2-12 1-20-4-8v-3h3v-4l3-3 2-3 8-1 10-2 2-2 1-6v-12l2-14z" fill="#D4794E"/>
<path transform="translate(414,692)" d="m0 0 5 1 6 7 3 9-2 7-5 1h-7l-8-5h-6l-3 5-1 7v10l2 9 1 1h6l8-4 5-1h7l3 1 1 2v30l-2 29 2 1-3 6h-3l-4 9-1 8-1 20-8-8h-11l-1 2-5-1-1 4h-3v13l3 11 3 9h-3l-14-27-8-22-4-17-7-27-5-26-1-8v-24l3-4 16-5 16-8 10-4 6-5 2-3h5z" fill="#F3D576"/>
<path transform="translate(617,169)" d="m0 0h36l5 2 2 59 2 43 1 33 1 18 2 7h-2v2h-3l-2 4-5 6-5 2-2 4-5 5-4 3-3-1-1-6-1-33-1-5-1-19-1-34-3-54h-15l2-8v-12l2-14z" fill="#D4794E"/>
<path transform="translate(464,690)" d="m0 0 4 1 10 6 3 5 14 5 11 4 7 4 13 4 5 4v9l-3 18-1 13-4 15-6 25-7 27-9 21-2 3-7 1-1-2v-10l-4-1v-6l-1-7 5-2 2-10v-3l-12-2-1-3-5-1-3-5-1-9 14-2 1-3h3v-16h-2l-4-5v-2h-2l-1-3-16-8-6-4-1-8 2-3h12l3 3h6l3-4 1-3v-15l-3-8-1-3-11 4-2 2h-7l-3-3v-9l6-9z" fill="#F3D576"/>
<path transform="translate(461,267)" d="m0 0h58l1 1v6l-6 16-1 24-1 61-1 1h-6v2l-7-1-11 8-9 5-6 4-12 1-8-1-3-3 7-2 11-3 1-6v-44l-1-47-5-10-1-4z" fill="#FCF6D2"/>
<path transform="translate(453,681)" d="m0 0 1 2 4 2 6 7-1 5-5 7v9l2 2h7l6-4 7-1 4 7 1 4v15l-3 6-2 2h-6l-3-3h-12l-2 1-2 5-2 1-10-6-7-1 2 8 3 6 4 4 3 10v7l1 2h-2l-2 5-1 3h-2l-1 4-12 11-3 1 2-30v-32h-10l-10 3-3 2h-6l-3-5-1-6v-10l2-9 3-4h6l8 5h7l5-1 1-7-3-10-4-2-4-5 4-1 2-4 4-3 12-1h14z" fill="#AD8057"/>
<path transform="translate(95,601)" d="m0 0h5l11 11-1 7-1 4 12 5 10 5 6 4h4l8-18 7-13 4 2 4 5 5 12 3 12v20l-4 6-3 4-2-1-1-1h-12l-3-4h-2v4l-8 3-1 3 5 1-1 7-2 4-5 2 3 2-1 5-8 2-9-1-15-4-16-8-8-6 2-4 13-6 18-5h3l-7-21-3-10v-5h-8l-5-5-3-7-1-3z" fill="#4E8D55"/>
<path transform="translate(214,663)" d="m0 0 4 1 8 11 9 17 4 15v7l-5 5-11 2-5 2-4-1-2 4-6 4 2 2 4-1 5-3-1 3-2 1-3 8-3 3 1 4 2 1-2 5-3 2-6 1h-20l-12-3-13-5-5-5 5-4 13-8 12-5 1-4-12-25-1-7-10 4-5-5-5-7-1-6 7-4 1-3 4 1 9 7 2 3-1 8 10 3 23 7 2 1 2-10 4-16z" fill="#4E8D56"/>
<path transform="translate(666,663)" d="m0 0h2l6 16 4 18 3 1 22-7 10-1-1-10 4-4 6-3 1-3h2l1 3 7 3 2 2-1 6-8 9-6-1-4-2-3 9-12 23v4l9 3 16 8 7 6-2 4-14 5-11 3-8 1h-16l-9-3-1-3 5-5-5-3-1-10h7l-2-3-5-2-1-2 1-2-2-1h2v-3l-5 1-1 2-5-2-4-1-4 3-2 1-6-8v-8l5-18 8-15z" fill="#4E8D56"/>
<path transform="translate(641,420)" d="m0 0h10l11 8 5 5 10 8 5 5 4 10 2 11v2l-2 1h-8l-4-1-10 16-2 8-1 14-7 9-1 1h-5l-3-3-3-9-2-15-1-3-2-20-1-4-13 1-1 1-1 9-3 2-10-6v-2l-4-2-5-1-8 15-7 1-1-6 5-13 2-7 4-3h11l7 4 4-1 5-7 4-10h2l1-6h2l2-6z" fill="#AE8157"/>
<path transform="translate(476,534)" d="m0 0 2 3 9 23 4 11 3 10 6 16 4 7 17 2 23 1h40l6-2-1 6 9 20 5 13v5l-32 18-16 7-6-1-11-9-9-9v-5h-2l-8-12-3-6 1-4 4 2 1 3h2v3h2l4 4 5 1 1-5 2-2 5-2 7-7 6-5h2l-1-3-9-3-13-3 2 2v4l-4 7-4 5-4-1 4-3 4-7v-3l-6-3-10-1h-9l-1-3-5 3h-4l-1-11-5-12-14-43-2-5z" fill="#898A87"/>
<path transform="translate(118,539)" d="m0 0 4 1 2 12 1 21-2 13-4 8-8 4h-2l-4-4-4-1-4 1-3-5h-2l-2 4-2 1h-6l1 5h2l1-2h6v3l-7 2-5 6-4 1 1 7-5 1-12-3-14-8-10-8-11-13 1-3 7-2 17-1 14 2-1-15v-11l2-11 2-1 9 6 10 9 7 7h4l2-5 8-10z" fill="#508E58"/>
<path transform="translate(598,715)" d="m0 0 3 2 4 18 1 13 1 3 7-1 15-3h13v4l-7 13-10 13 1 4 10 6 11 9 5 5v4l-8 3-13 3h-21l-12-4-5-4v-4h5l-5-5 1-7 4-4-1-3-5-4 2-4 1-3-5 3h-4l-4-3-7-1-1 4-3-8-1-7 4-13 8-13z" fill="#4F8E57"/>
<path transform="translate(763,538)" d="m0 0 7 6 8 8 9 12h4l16-16 8-5h3l1 4v33l25-1 12 2 1 3-8 10-8 8-16 11-5 2-6 1h-8l1-5v-2l-6-2-2-2v-5l-4-1 4-6-6 2-2 1v-10l-2 1-3 6h-3-5l-7 3-6-1-4-6-4-19v-9l4-21z" fill="#4E8D56"/>
<path transform="translate(724,605)" d="m0 0 5 5 11 23 2 4 4-1 12-7 14-5h4v9l-4 12-2 9-2 5 15 4 12 4 9 5v3l-11 8-21 8-12 2h-8l-6-2-1-2 4-3-5-4-2-4 1-5 3-2 1-4h-8l-1-3 1-5-5 2-2 2h-9l-6 2-6-7-1-2v-16l4-17 8-16z" fill="#4F8D56"/>
<path transform="translate(283,716)" d="m0 0 4 1 9 8 10 15 6 15v10l-4 7-5 5-2-1 1-3h2v-2h2v-2l-8 1-3 4-4-4-4-1 2 4-1 4-4 3-1 4 6 1v7l-5 6 4 3-1 4-16 6h-19l-20-5-2-3 4-6 11-9 14-8-2-5-13-17-5-10 4-2 24 3 10 2v-8l4-23z" fill="#4E8D56"/>
<path transform="translate(697,428)" d="m0 0h1l1 11 5 2-1 3-3 1v3h5l-6 14-2 7-4 1-6 10v3l6 1 1 11v19l-2 6-13-1h-5l-4 2-6 7-12 9-5 4-4-2-5-5-10-16-3-11-5-25 1-17 2-2h13l2 4 2 20 2 7 1 11 4 10 1 1h5l7-9 1-14 3-9 8-14 3-2 3 1h8l1-5-2-9 2-5 3-3 1-2h3l2-15z" fill="#DCB274"/>
<path transform="translate(425,740)" d="m0 0h3l1 2v30l-2 29 2 1-3 6h-3l-4 9-1 8-1 20-8-8h-11l-1 2-5-1-1 4h-3v13l3 11 3 9h-3l-14-27-3-12 1-6-2-11v-11l1-3h-2l-3-14-1-2 2-5h2l1-6 2-1 6-2h2l1-5 5 1 1 2-1 3 7 1 2 2 7 1 4 1 3-2 6 1 1 1-1 7-1 3h2l2 3h3l1-7 1-4v-10l-2-5 1-8 1-5v-11z" fill="#EEC56C"/>
<path transform="translate(833,464)" d="m0 0 2 1 5 17 2 11 1 1h9l5-2 20-3-1 5-8 14-13 14-10 6h-5l-2-3 3-4-8 2-4-3 1-9-7 1-3-3-3-1 1 3-2 4-5 2-3 3-5 1-6-4-5-8-6-17-1-11 1-9 5 1 12 8 9 7h3l12-17z" fill="#508E57"/>
<path transform="translate(50,464)" d="m0 0 4 4 6 8 8 12h3l16-12 6-4 4 1-1 20-5 14-6 10-4 4-4-1-5-4-8-4-7 1-3 2-3 5-5 2-2 1-1 5-4 1-9-6-10-9-7-9-6-12v-2h12l21 3 4-16 2-7z" fill="#4E8D56"/>
<path transform="translate(694,468)" d="m0 0 4 1 16 1 4 9 1 18-2 1-4-19-2-4-12 1-1 3-1 35v17l2 11 3 6-4 2-1 14v39h-5l2-4v-39l-1-13-2-8-8-5h-6l-2 4-4 7-7 8-5 2-30-4-1-3-3-1-9-22-1-1-7 1-13 7-5 1-3-3 2-5 10-9h2l1-3 11-7 10-1 3 2 4 13 9 14 5 5h4l17-13 5-6 4-2h9l9 2 1-13v-23l-3 1-4-2 1-4 6-10z" fill="#AE8158"/>
<path transform="translate(461,267)" d="m0 0h58l1 1v6l-6 16h-2v15l-1 9-5 5h-15l-13 3h-5l-3-2-1 16h-1l-1-47-5-10-1-4z" fill="#FDFBF2"/>
<path transform="translate(679,533)" d="m0 0 5 1 7 4 3 9 1 13v39l-3 4-8 1-33-1 6-11 3-38 5-3 2-3h2l2-5 6-9z" fill="#D4794E"/>
<path transform="translate(612,205)" d="m0 0h15l1 2 3 52 1 37 1 16 1 9 1 29 1 6 5-2 3-1 2-4 5-5 3-1 1-3 5-5 1-2h3v-2l4 1v3l-1 2h-2l-2 4-7 7-3 5-6 5-7 8-5 5-10 8-13 13-4-2-1-74-1-3-5 2-12 11-7 4-13 12-13 10-13 11-11 10-7 6-4 5-2 2h-4l1-4 8-7 9-8 11-9 10-9 8-7 7-6 8-7 2-6 1-10 1-6h1l2 13 8-4 7-7 5-2 2-5 5-2 1 1v18l1 42v19l5-2 4-5 5-5 1-7v-32l-1-56-3-67h-12z" fill="#B7644A"/>
<path transform="translate(436,741)" d="m0 0h7l11 6 3-6 2 1-1 4 1 5 8 5 11 5 3 2v3h2l4 5v2h2l1 5v9l-1 2-3 1-3 3-12 1 3 11 3 3 3 1 1 2 12 3 1 6-2 7-6 2 2 7v6l3 1 1 11h7l-4 8-28 1h-15l2-4 2-1 2 1h10v-3l-5-2 1-4 3-4 1-4v-8l-4-4-2-1h-6l-5 4h-2l2-4 3-3 3-11 3 2 1 5 8 2v-26l-1-7 10-1 5-3v-12l-6-8-6-4-8-3-5-5-2-4-4-2-9-5h-5l2 5 6 9 11 7-1 6-4 5-2 9-8 4v-3h2l1-5 2-5v-7l-3-10-5-6-3-6z" fill="#DAB075"/>
<path transform="translate(627,549)" d="m0 0 2 1 30 4 1 1v15l-2 22-6 10 21 1v1h-60v-1h7l-1-3v-12l2-12 2-13 2-10z" fill="#E6B76C"/>
<path transform="translate(649,437)" d="m0 0h6l7 6 2 5h2v2l5 2 2 3v9h2l-1 5-10 16-2 8-1 14-7 9-1 1h-5l-3-3-3-9-2-15-1-3-2-20-2-5 5-6 4-12 3-6z" fill="#C78052"/>
<path transform="translate(540,192)" d="m0 0 11 4 17 9 13 9 6 3 1-2v3h-3l1 5-5-2 1 5-10 24-4 1-5-4-4-6-3-6v-2l-4-2-11-11-8 1-4-4-9 1-1-3 8-12 4-7z" fill="#94948E"/>
<path transform="translate(511,380)" d="m0 0h1v6l7-1 4-1 11 4 4 2v2h2v2l6 2 7 8 4 5 4 7 4 8 3 11 2 21-1 15-7 21-7 11-3 5-6 7-5 4-5 3-7 5-8 4-25 5h-15l-2-2-10-3-9-4-10-5 2-1 12 5 10 2 7-3 10-1h15l17-4 8-4 5-3 10-8 5-6 8-17 4-16v-21l-3-16-7-14-8-10-9-6-5-3-17-5-3-3z" fill="#E0B370"/>
<path transform="translate(369,193)" d="m0 0 1 2h14l2 3v23l-3 12-2 3-11 5-9-1-8-5-1-4-4-2-3-6-4-3 16-17 11-9z" fill="#C8C9C9"/>
<path transform="translate(843,410)" d="m0 0h2l3 8 2 9 1 1h9l10-1 2 1-1 5-8 10-7 7-6 1-3-2h-5l-2 3-2 7h-4v-2l-4-2 1-6-10-5-5-7-3-11v-9l4-2 5 4 7 4 5-1 7-9z" fill="#4D8D55"/>
<path transform="translate(452,653)" d="m0 0 6 1 2 2v3l3 1-1 24 3 6-2 2v-2l-4-2-5-5h-2-14l-12 1-5 4-3 3-8 5h-5l-9-16v-7l2-3 6 1 4 8 5 2 7-4 7-1 1-6 6-2 1-5h-3l-3 3-1 3-5 1-5-2-4 2h-6l-1-2 7-2 6-1 5 2h2l1-4 3-4 10-1z" fill="#959690"/>
<path transform="translate(37,411)" d="m0 0 4 2 6 8 4 3 5-1 9-7h4l1 4-2 12-4 10-4 4-6-1h-8v2l6 5-1 5-2 2h-4l-2-12-7 1-3 4-5-2-10-9-8-12 4-2 17 1 3-8 1-1 1-7z" fill="#4E8D56"/>
<path transform="translate(275,569)" d="m0 0h10l5 5 6 3 1 2-1 11-8 16-4 4-5 3-9 2-2 2-9-27-3-12 7-4z" fill="#C8C9C9"/>
<path transform="translate(395,333)" d="m0 0h9l5 1 6 2 2 2 3 1 7 8 6 8 6 12 3 10-1 3-5-13-7-13-9-10-5-3-5-1h-17l-10 2-8 4-8 7-8 16-5 16-2 14-5 3-18 1-15 9-9 8-5 8-2 8v17l5 16 7 13 10 13 2 4 4 2 8 6 11 7 12 6 18 5 7 1h14l18-5 14-8 6-3 2 1-8 6-7 4-8 4-5 1-13 4h-17l-4-1-10-1-10-3v-2l-9-2-14-10-3-3-4-2-1-3-2-1v-3h-2l-5-7-7-7v-3l-2-1-2-4-3-5v-2l-2-1-3-9-1-12v-9l1-8 6-11 8-9 15-10 8-3h10l7-1 2-7 3-15 6-17 7-11 9-8 12-4 4-1z" fill="#AAACAD"/>
<path transform="translate(611,509)" d="m0 0h9l4 4 7 13 8 13 4 7h5l2-4 6-6h2l2-4 8-7h3l1-4 2-1 11 1 6 3 5 1v15h-2l-2-4-7-3-4-3h-4l-6 12-6 7-4 3-7 1-23-4-4-4-5-11-5-13h-13l-1-5z" fill="#4D8D55"/>
<path transform="translate(400,836)" d="m0 0h9l7 6 2 9v10h-1l-1 5-4 1-8-1-1 5h-2l1 11 4 2 5 5 5 6v2l5 1 6 8 4 1 7 8h-3l-22-12-13-13-7-12-1-5-3-12-2-6v-11l1-2 3-2 1-3 5 1z" fill="#EBB766"/>
<path transform="translate(509,608)" d="m0 0 32 1 34 3 3 2v2h2l1 2v7l-7 2-5 1v3l-12 5-5 5-2 1-3 5-2 5h2l2 3-1 5-7 1-10-13-4-2-1 2-7-10-3-6 1-4 4 2 1 3h2v3h2l4 4 5 1 1-5 2-2 5-2 7-7 6-5h2l-1-3-9-3-13-3 2 2v4l-4 7-4 5-4-1 4-3 4-7v-3l-6-3-10-1h-9z" fill="#94948E"/>
<path transform="translate(393,339)" d="m0 0h17l7 2 10 9 7 11 6 13 1 6h2l2 11 1 12v27l-3 17-5 15-1 7 4 9 2 8v12l-5 10-7 5-8 4-2-1 6-4 9-5 4-7 1-6-2-12-4-10-1-7 4-10 4-19 1-14v-17l-2-18-4-14-7-13-4-8-5-5-4-3-13-2h-9l-11 2-7 4-5 5-6 9-3 3-2 5-1 11-3 10-1 7-4 5-13 3-1-2-7 1-9 6h-4v2l-8 6-7 9-2 17 1 11 4 10 3 8 1 6h2l10 15h3l3 5 10 8 11 6 12 6-4 1-16-8-11-8-8-6-13-17-8-15-4-14v-17l3-9 4-7 11-10 10-6 4-2 18-1 4-2 3-18 4-12 8-16 10-9 10-4z" fill="#A06356"/>
<path transform="translate(492,790)" d="m0 0 5 1 4-1 2 5 4 3 1 8 1 6h-2l2 8-1 3-1 8v7l-8 16-7 1-1-2v-10l-4-1v-6l-1-7 5-2 2-10v-3l-12-2-1-3-5-1-1-3 2-2h8v-2l2-1 1-4h2v-2h3z" fill="#EEC56C"/>
<path transform="translate(272,240)" d="m0 0 5 3 6 10 4 11 1 8-2 5-8 6-8 1-9-2-7-19-1-7h3l3-4 3-5 5-4 5-1z" fill="#C7C8C8"/>
<path transform="translate(623,463)" d="m0 0h13l2 4 2 20 2 7 1 11 4 10 1 1h5l4-3-2 6-5 9-2 4h-3v-4h-2l-1-3v-7l-3 5h-4l2-1v-2h2l-1-11h-6l-2 5h-1v-6l2-2h-2l-2 6h-1l-6-30 1-17z" fill="#E9B063"/>
<path transform="translate(673,472)" d="m0 0 1 4v16h4v-2h4l3-7 8 1 1 11v19l-2 6-13-1h-5l-4 1v-5h-3-5l-5 9-1-3 4-8 1-4 2-4 1-13 5-14z" fill="#EAAE61"/>
<path transform="translate(212,491)" d="m0 0 14 1 2 1v2l4 2 2 12-4 5h-2v2l-13 8-6 1-5-2-5-4-3-6v-8l6-10z" fill="#C8C9C9"/>
<path transform="translate(586,462)" d="m0 0h1v6l-3 7v6l7-1 2-5 6-11 5 1 8 7 7 3 2-1v9l4 19 1 3-2 3-1-2-10 1-6 3 2-5 5-5 2-5h-9l-4-1-2-6-1-2-5 4-2 1h-6l-4-4-2-4-1-7 4-10z" fill="#C78052"/>
<path transform="translate(641,422)" d="m0 0h9l8 6 1 4-1 2-5-2-4-1-5 2-2 3-2 11-4 12-4 2-9 1-3 2-1 10-6-3-9-8h-7l-5 6-2-1 2-11 4-3h8l8 4 1 1h6l8-19 5-10z" fill="#837854"/>
<path transform="translate(504,208)" d="m0 0h2l-1 7 4 6-3 8-7 11-4 4h-7l-12-4-8-5-1-10 24-11z" fill="#C8C9C9"/>
<path transform="translate(453,681)" d="m0 0 1 2 4 2 6 7v3l-5 5-4 5-2 1-20 1-2 5-2-3-4-11-5-5v-5l6-5 12-1h14z" fill="#867754"/>
<path transform="translate(609,300)" d="m0 0 3 1v18l1 42v19h-2l-1-9v18l4 1-3 2-3-2-1-74-1-3-5 2-12 11-7 4-13 12-13 10-13 11-11 10-7 6-4 5-2 2h-4l1-4 8-7 9-8 11-9 10-9 8-7 7-6 8-7 2-6 1-10 1-6h1l2 13 8-4 7-7 5-2 2-5z" fill="#B8644A"/>
<path transform="translate(628,553)" d="m0 0h13l17 2 1 1v7l-4 24-2 4-5 1-2-4v-7l-2-9h-4l-2 4-3 5h-3v3h-3l-2-4v-23z" fill="#EFC56C"/>
<path transform="translate(540,192)" d="m0 0 11 4 17 9 13 9 6 3 1-2v3h-3l1 5-5-2 1 5-5 8h-2v-2h-3v-2h-2l-6-12v-3l-6 1v-2l-4-1-4-5-7-4-9 2-2-1v2l-8 6-1-4 8-13z" fill="#8A8B87"/>
<path transform="translate(434,740)" d="m0 0h7v1h-5l2 8 3 6 4 4 3 10v7l1 2h-2l-2 5-1 3h-2l-1 4-12 11-3 1 2-30 1-30h1l2 12h3z" fill="#AD825A"/>
<path transform="translate(449,862)" d="m0 0h46l-2 6-9 15-7 9-11 10-1-4h3l1-4h2l2-6 6-10v-5-3l1-1h-4v3l-14-1-8-2-6 2-13-2-6-3-3-3z" fill="#EAB768"/>
<path transform="translate(476,533)" d="m0 0 4 1 2 9 10 24 12 29 3 5 78 1 5 2-3 3-4 1h-39l-27-1-13-2-6-10-7-19-3-10-12-32z" fill="#AA6251"/>
<path transform="translate(347,52)" d="m0 0h3l3 8 6 23 2 7v7l-7 8-5 2-6-1-8-7v-5l4 2 6 5h6l3-2 1-9-3-12-1-2-5 1-4 2h-7l-6-4-3-7 1-9 7-6zm-11 5-5 5v7l4 5 7 1 6-5v-7l-5-6z" fill="#905954"/>
<path transform="translate(611,509)" d="m0 0h9l4 4 7 13 8 13 4 7h4l-2 5-14-2-4-4-5-11-5-13h-13l-1-5z" fill="#867754"/>
<path transform="translate(629,505)" d="m0 0 4 2-4 1 1 2 2-2 6 1 1 3v8h-2l-1 3 4-2v-3h2l1 10h2v4h3l1-4 9-16 4-1-5 10v2l4-8 1-1h5l4 1-1 6-6 7-12 9-5 4-4-2-5-5-10-16-1-3v-7z" fill="#DCB073"/>
<path transform="translate(641,477)" d="m0 0 6 1 5 4v2l4 2 4 8v14l-6 8-1 1h-5l-3-3-3-9-2-15v-12z" fill="#AE8157"/>
<path transform="translate(561,481)" d="m0 0 1 3-5 10-2 6-4 4-1 2h-2l-2 4-4 2v2l-14 9-9 4-1 2-11 3-7 1h-25l-20-8-5-3 2-1 12 5 10 2 7-3 10-1h15l17-4 8-4 5-3 10-8 5-6 8-17z" fill="#F4D676"/>
<path transform="translate(453)" d="m0 0h13l6 5 5 9v3l-4-1-6-8-4-3h-8l-4 3h-2l-2 5v8l4 6 7 3 11 4 5 6 1 3v11l-4 6-6 4-3 1h-12l-9-6-3-7v-5l3 1 4 8 5 4 9 2 8-4 4-8-1-7-4-5-15-5-6-5-3-7v-8l5-8z" fill="#91655E"/>
<path transform="translate(436,741)" d="m0 0h7l11 6 3-6 2 1-1 4 1 5 8 5 11 5 3 2v3h2l4 5v2h2l1 5v9l-1 2-3 1-3 3-13 2-2-1v-3l10-1 5-3v-12l-6-8-6-4-8-3-5-5-2-4-4-2-9-5h-5l2 5 6 9 11 7-1 6-4 5-2 9-8 4v-3h2l1-5 2-5v-7l-3-10-5-6-3-6z" fill="#DCB679"/>
<path transform="translate(785,159)" d="m0 0 1 3-7 8-8 7 1 5 6 7v2l5-2 13-12 2-2h3l-1 4-15 15-8 7-10 9-10 8-3-1 2-4 8-7 11-10-8-12-5 1-9 9-10 8h-2l2-4 24-24 8-7z" fill="#894D47"/>
<path transform="translate(368,620)" d="m0 0 8 1 8 4 4 5 1 3 1 21-7 1-2 1-10-16v-8l-3-7-4-1 1-3z" fill="#C8C9C9"/>
<path transform="translate(744,110)" d="m0 0h3l-2 5-11 14-12 14-8 10-7 8-9-3-7-6-2-5 1-7 3-5 4-3h8l7 4 1 3h2l1 2 4-2 10-12 11-14zm-43 26-5 3-2 3 1 8 6 5 6-1 5-6-1-6-7-6z" fill="#8A4F48"/>
<path transform="translate(365,205)" d="m0 0 6 1 7 4 2 8-3 7-8 5h-6l-5-5-5-2-1-2v-6l3-2 2-4h3l1-3z" fill="#E9EBE9"/>
<path transform="translate(694,468)" d="m0 0 4 1 16 1 4 9 1 18-2 1-4-19-2-4-12 1-1 3-1 35-1 11h-5l-6-3-11-1-2-1 2-2h9l9 2 1-13v-23l-3 1-4-2 1-4 6-10z" fill="#A98461"/>
<path transform="translate(627,549)" d="m0 0 2 2-2 5-1 24v12l1 3 4-2 3-8 6-5 3 1v21l-4 1h-19l-1-3v-12l2-12 2-13 2-10z" fill="#EAAE61"/>
<path transform="translate(521,47)" d="m0 0h11l7 3 5 6v9l-5 7-5 2-9-1-6-2-4 18-3 11-4 1 1-9 5-23 3-14 3-7zm6 4-5 5-1 2v7l6 5 5 1 6-4 2-4-1-7-4-4-2-1z" fill="#8C534D"/>
<path transform="translate(414,692)" d="m0 0 5 1 6 7 3 9-2 7-5 1h-7l-8-5h-6l-3 5-2 12h-1v-10l3-9 2-3 9-3v-4h-2v-2h-2l1-3h5z" fill="#F2D375"/>
<path transform="translate(273,575)" d="m0 0 9 1 5 5 2 5v5l-4 5-8 3h-7l-2-4-2-1-2-9 2-6z" fill="#E9EBE9"/>
<path transform="translate(686,483)" d="m0 0 7 1 1 11v19l-2 6-13-1h-5l-2 1 3-9 5-9 5-8h2l-1-6z" fill="#C78253"/>
<path transform="translate(483,218)" d="m0 0h2v5l5 2 5 3v2h2v7l-1 3-3 2-9-1-11-4-3-2-1-4 3-6-1-2z" fill="#E9EBE9"/>
<path transform="translate(321,499)" d="m0 0 4 1 9 7 11 7 12 6 18 5 7 1h14l18-5 14-8 6-3 2 1-8 6-7 4-8 4-5 1-13 4h-17l-4-1-10-1-10-3v-2l-9-2-14-10-3-3-4-2-1-3-2-1z" fill="#9D9D9A"/>
<path transform="translate(793,241)" d="m0 0 8 1 6 5 5 9-1 6-10 7-6 3-4-2-6-8-3-7 1-6 5-6zm0 6-5 4-1 5 4 6 3 2 6-1 4-5-1-8-4-3z" fill="#8C514C"/>
<path transform="translate(227,726)" d="m0 0 4 3 7 3 3 4-1 7-5 7-4 1-6-4-7-6-1-2v-6l8-5z" fill="#AD8662"/>
<path transform="translate(80,259)" d="m0 0 2 3-1 2v6l16 7 3 3-1 4-17-8-5-1-4 8-1 3 19 9 2 4-4 1-19-9-2-2 1-5 1-1 2-13-8-3 1-4 9 3z" fill="#905D56"/>
<path transform="translate(95,601)" d="m0 0h5l11 11-1 7-1 5h-3v5h-1v-5h-8l-5-5-3-7-1-3z" fill="#A86352"/>
<path transform="translate(576,307)" d="m0 0h5l-1 18-4 6-8 7h-2l-1 3-8 7-14 12-12 10-8 7-5 5h-2l-1 3-1-2 6-8 13-11h2l2-4h2l2-4 5-4h2v-2l8-7h2l2-4 4-5h2l2-4 3-3 3-6 1-7 1-5z" fill="#94948E"/>
<path transform="translate(330,400)" d="m0 0h20l-4 2-17 1-15 9-9 8-5 8-2 8v17l5 16 7 13 10 13 2 4h-3l-5-7-7-7v-3l-2-1-2-4-3-5v-2l-2-1-3-9-1-12v-9l1-8 6-11 8-9 4-3 8-3 7-4z" fill="#969691"/>
<path transform="translate(155,669)" d="m0 0 4 1 9 7 2 3-1 9-10 5-5-3-6-9-1-6 7-4z" fill="#A0665B"/>
<path transform="translate(511,380)" d="m0 0h1v6l10 1 11 4 8 5 7 8 8 9 5 10 2 9 2 5v6l1 1 1 19-4 16-3 2 3-15v-21l-3-16-7-14-8-10-9-6-5-3-17-5-3-3z" fill="#DEC485"/>
<path transform="translate(627,438)" d="m0 0 1 2-8 19-1 1h-6l-6-4-3-1h-8l-3 2-2 11 6-6h7l11 10-3 1-4-3v-2l-4-2-5-1-8 15-7 1-1-6 5-13 2-7 4-3h11l7 4 4-1 5-7 4-8z" fill="#AD8057"/>
<path transform="translate(131,187)" d="m0 0h9l5 3 4 6v9l-7 8-5 2-7-1-5-4-4-8v-6l6-7zm3 4-6 4-2 3 1 7 4 4h8l5-5-1-9-3-3z" fill="#8D544E"/>
<path transform="translate(610,523)" d="m0 0h5l3 4 8 20 2 2-4 3-3-3v-2h-2v-2h-2l-5-7v-7l-3-3-1 3-10 5-5 1h-7l-2-1-1-7 3-3 2 5 3 1 10-4z" fill="#C88052"/>
<path transform="translate(263,80)" d="m0 0h8l6 4 4 6v8l-7 8-4 2h-8l-6-5-3-7v-6l4-6zm4 4-7 3-2 3 1 9 5 4h6l5-4 1-7-4-6z" fill="#8A4F49"/>
<path transform="translate(623,463)" d="m0 0h11l1 5 1 22-1 4-4 1-3-3-4-10-3-9v-8z" fill="#ECB766"/>
<path transform="translate(305,62)" d="m0 0 10 1 6 7 1 2v8l-4 6-7 4h-8l-5-4-3-5-1-8 3-6 4-4zm-1 5-5 5v7l5 6 5 1 5-3 3-4-1-7-5-5z" fill="#8E5953"/>
<path transform="translate(7,370)" d="m0 0 5 5 29 7 13 3 5-1 5-4 1 3-4 14h-3l-2-7-12-2-21-5-8-2h-6l-3 3-3-1 3-11z" fill="#966861"/>
<path transform="translate(581,307)" d="m0 0h1v15l8-3 5-4 2 1-7 7-7 5-4 5-8 7-16 13-11 9-12 11-7 6-4 5-2 2h-4l1-4 8-7 9-8 11-9 10-9 8-7 7-6 8-7 2-6 1-10z" fill="#9F6855"/>
<path transform="translate(841,367)" d="m0 0h9l6 4 4 6-1 9-6 7-5 2h-6l-7-6-3-10 3-7zm2 5-5 5v8l5 5h6l5-4 1-2-1-9-4-3z" fill="#915A55"/>
<path transform="translate(143,123)" d="m0 0h2l-1 4-4 7v2h2l7 8 22 22v2l3 1 3 5-1 3-5-3-7-8-27-27-4-1-6 5-3-1 16-17z" fill="#8A524B"/>
<path transform="translate(481,703)" d="m0 0 6 1 8 3 11 4 7 4 13 4 5 4v9l-3 18h-1l-1-17-2-6-4-5-6-1-15-5v-2l-5-1-7-3-4-4v-2z" fill="#FAEEA3"/>
<path transform="translate(723,670)" d="m0 0h2l1 3 7 3 2 2-1 6-8 9-6-1-5-2h-3v-10l4-4 6-3z" fill="#BD694C"/>
<path transform="translate(403,698)" d="m0 0h3v2h2l1 4-11 5-6 5h-3l-1 3-14 4-7 1-9 1h-5l2-3 16-5 16-8 10-4z" fill="#FAEEA3"/>
<path transform="translate(651,724)" d="m0 0 3 3v3l5 2 6 5-1 4-8 7-3 2-4-1-4-2-4-9 1-5 8-3z" fill="#AA7162"/>
<path transform="translate(191,128)" d="m0 0h7l6 3 1 4-10 8-4 3v3h10l-1 4-3 2h-7l-6-4-2-5v-9l4-6zm0 5-4 4v4l4-1 4-2 1-3-1-2z" fill="#8C5850"/>
<path transform="translate(629,86)" d="m0 0h9l6 4 3 3 1 8-3 6-4 5-4 2-8-1-6-4-4-7 1-7 7-8zm3 3-6 5-2 7 4 6 3 2h6l5-5 1-2v-6l-3-5-4-2z" fill="#8D5951"/>
<path transform="translate(402,40)" d="m0 0 9 2 5 5 1 3v9l-5 6-4 2-8 1-6-3-4-7v-7l3-6 5-4zm-1 4-5 4-1 2v8l5 5h7l5-5v-7l-4-6-1-1z" fill="#8D5952"/>
<path transform="translate(51,346)" d="m0 0h8l8 2 6 3-2 4-10-3h-10l-3 3-1 8 4 4 8 3 7 2-1 4-7-1-16-5-3-3 4-14 5-6z" fill="#966D66"/>
<path transform="translate(580,773)" d="m0 0h2l-1 3h-2l1 5 5 3 2 5-11 8-6 1-4-9-2-2 1-6 7-3h2l1-4z" fill="#A0695C"/>
<path transform="translate(785,604)" d="m0 0 6 1 1 1v8l-4 8-1 1h-11l-4-4-1-6 3-5 6-3z" fill="#A0675A"/>
<path transform="translate(560,56)" d="m0 0 9 2 5 5 1 9-3 2-9-2-3-2h-5l1 6 4 5-3 1-6-4-3-7 2-9 5-4zm0 4-3 2 1 3 4 3h6l1-3-4-5z" fill="#8A564E"/>
<path transform="translate(723,155)" d="m0 0h7l6 3 5 6v8l-2 4-5-1-8-7-3-3-3-1 1 13-4-1-3-9 3-7zm4 5 1 5 6 5h2v-6l-4-4z" fill="#894D47"/>
<path transform="translate(234,96)" d="m0 0h8l6 3 6 10 2 4v3l-4-1-9-13-3-2-6 1-5 6 1 6 4 8 3 5-1 3-4-2-7-11-4-8-1-5 9-4z" fill="#8D544F"/>
<path transform="translate(674,520)" d="m0 0 11 1 6 3 5 1v15h-2l-2-4-7-3-4-3h-4l-6 12-6 7-4 3-7 1v-2l7-3 7-8 7-12 2-6h-5z" fill="#867854"/>
<path transform="translate(97,231)" d="m0 0 9 4 11 7 3 3-6 11-7 7-4 1-9-3-11-7v-3l6 1 10 6h6l5-5 1-4-3-6-10-7-3-3z" fill="#925B56"/>
<path transform="translate(304,779)" d="m0 0h8l6 2 1 5-6 10-4 2-12-7-1-1v-6z" fill="#BA7152"/>
<path transform="translate(486,38)" d="m0 0 3 2-1 9v9l5 5 6 1 4-3 4-17 1-2 3 1-1 15-2 9-2 2-14-1-7-4-2-3v-15l2-7z" fill="#8B4D48"/>
<path transform="translate(442,380)" d="m0 0h1l2 11 1 12v27l-3 17-5 15-1 7 4 9 2 8v12l-5 10-7 5-8 4-2-1 6-4 9-5 4-7 1-6-2-12-4-10-1-7 4-10 4-19 1-14v-17l-1-9z" fill="#AA7957"/>
<path transform="translate(827,291)" d="m0 0h5v3l-16 8-1 6 3 8 5 1 11-3 3-2 4 1-1 3-21 9h-3l-6-15-1-6 3-5 9-6z" fill="#915C57"/>
<path transform="translate(596,454)" d="m0 0h8l8 4 7 2v2l2 1-1 1-1 10-6-3-9-8h-7l-5 6-2-1 2-11z" fill="#867854"/>
<path transform="translate(614,403)" d="m0 0h6l4 3-1 4-2 4v8l-5 2-5-2-5 1-8 1-6-2v-4l7-2 5 2h5l1-1 2-10z" fill="#B18157"/>
<path transform="translate(561,484)" d="m0 0 1 3-6 15-4 6-6 7-5 4-5 3-7 5-8 4-25 5h-15l-2-3 21-1 15-3h3l1-3 16-8 5-4h2v-2l5-4 1-2h2l2-5 3-2 2-6z" fill="#E1AD6B"/>
<path transform="translate(779,209)" d="m0 0 5 1-5 5-6 4-4 6 1 6 4 4h7l10-6 5-2v4l-18 13-4-1-4-5-6-11 1-6 9-9z" fill="#894F48"/>
<path transform="translate(634,463)" d="m0 0h2l2 4 2 20 2 7 1 11 4 10 1 1h5l4-3-2 6-5 9-2 4h-3l-2-9-2-13-3-5v-2l-3-1 2-1v-16l-2-18z" fill="#D89562"/>
<path transform="translate(476,715)" d="m0 0 5 5-1 4h-5l3 4h3v10l-2 4-4-1-7-5-3-11 5-8z" fill="#9F6156"/>
<path transform="translate(608,423)" d="m0 0 4 1 7 8 4 5-2 10-4 1h-3l-2-7-5-2-2-5v-8z" fill="#DEB473"/>
<path transform="translate(267,35)" d="m0 0 4 1 12 29 10 26v7l-5-5-10-27-10-25z" fill="#8E5751"/>
<path transform="translate(453,686)" d="m0 0h2v3h3l1 7-5 7-4 1h-20l-2-5v-6l2 1 1-4 4-2-1 4h-2v4h5l5 1 10-2z" fill="#9F6156"/>
<path transform="translate(393,339)" d="m0 0h17l7 2 10 9 7 11 6 13 2 6v7l-2-3-3-11-7-13-4-8-5-5-4-3-13-2h-9l-11 2-7 4-5 5-6 9-5 2 2-5 4-7 9-8 10-4z" fill="#9F6256"/>
<path transform="translate(818,521)" d="m0 0 5 1 4 2v11l-3 5-6 1-9-6-1-4 4-5z" fill="#8F8264"/>
<path transform="translate(618,505)" d="m0 0h5l3 2 4 13 9 14 5 5h4l17-13 5-6h2l-1 5-5 3-7 6-5 5-6 7-5 1-3-5-8-13-4-6-5-10v-2l-12-2 2-3z" fill="#AD8057"/>
<path transform="translate(840,324)" d="m0 0 6 2 2 4v8l-3 2h-3v-10l-4 1-1 9-4 4-2 1h-6l-4-5-2-8 5-5h3l-1 5-1 6 5 2h2v-9l2-4z" fill="#966A64"/>
<path transform="translate(491,571)" d="m0 0 2 3 6 14 5 13 2 2 12 1h21l49 1-1 2-4 1h-39l-27-1-13-2-6-10-7-19z" fill="#6A8254"/>
<path transform="translate(461,267)" d="m0 0h58l1 1v6l-2 5-1-4 1-4-3-1h-50v8l4 8 1 10v22l-1 18h-1l-1-47-5-10-1-4z" fill="#E9EBE9"/>
<path transform="translate(65,293)" d="m0 0 1 4-2 7 19 7 2 4-1 2-5-1-17-7-3 6-3 2-1-4 1-7-7-3v-4l10 1z" fill="#90615A"/>
<path transform="translate(274,251)" d="m0 0 4 1 4 8v6l-2 3-9 2-7-5v-8l5-4z" fill="#E9EBE9"/>
<path transform="translate(476,534)" d="m0 0 2 3 9 23 4 11 3 10 6 16 4 7 9 1v1l-9 1v3l-6 1-1-11-5-12-14-43-2-5z" fill="#94948E"/>
<path transform="translate(815,262)" d="m0 0h2l4 7 2 2 6-4 4 1-2 4-5 4 2 11-6-5v-2l-7 1-10 6h-6l2-4 11-6 4-2z" fill="#905B55"/>
<path transform="translate(585,63)" d="m0 0 5 1 12 5 4 5 1 2v8h-4l-3-10-4-2h-7l-4 6-5 10-4 1 3-10z" fill="#894E48"/>
<path transform="translate(395,333)" d="m0 0h9l5 1 6 2 2 2 3 1 7 8 6 8 6 12 3 10-1 3-5-13-7-13-9-10-5-3v-2l-7-1h-17l-12 3-10 7-5 5 2-5 7-7 5-3 10-3 4-1z" fill="#A9ABAC"/>
<path transform="translate(111,208)" d="m0 0h3l-1 5-1 4 14 10 3 4-1 3-7-4-14-9-2 5-5 2 1-5 1-6-5-5-1-3 4 1 5 3 3-1z" fill="#8F5B55"/>
<path transform="translate(437,669)" d="m0 0h6l5 3v2l4 2 2 2-1 4-4 1h-21l1-4z" fill="#EFCF77"/>
<path transform="translate(53,322)" d="m0 0 8 1-4 2-3 3v3l5 1 6-6h8l4 4-1 8-3 5-6 1-2-3 5-3 1-1v-6h-5l-4 6h-8l-5-5 1-7z" fill="#A2807B"/>
<path transform="translate(474,713)" d="m0 0h6l3 5 1 4v10l-3 11-1 1h-6l-3-3v-2l-4-1-3-3-2-4v-12zm2 2-6 2-5 8 3 11 8 6h3l2-4v-10h-3l-3-4h5l1-4z" fill="#867854"/>
<path transform="translate(679,471)" d="m0 0 9 1 1 5-7 14-4-1v2h-4l-1-9v-8l2-3z" fill="#EFC56C"/>
<path transform="translate(402,716)" d="m0 0 7 2 6 4-1 5-2 9-5 4h-5l-3-3 1-7 4-2-1-5-2-2z" fill="#9F6156"/>
<path transform="translate(660,99)" d="m0 0 11 7 5 5 1 2v10l-3 1-3-11-4-4-6-1-7 8-5 7h-3l1-5 7-11z" fill="#894C46"/>
<path transform="translate(362,363)" d="m0 0 1 2-2 5-1 11-3 10-1 7-4 5-13 3-1-2-7 1-9 6-4-1 7-6 4-2 18-1 4-2 3-18 4-12 2-5z" fill="#A16656"/>
<path transform="translate(401,713)" d="m0 0 7 1 3 3 7 1-1 10-1 8-5 4-4 2-7-1-3-6v-12l3-9zm1 3-1 5 3 3-1 5-3 1-1 7 3 3h5l5-4 2-9 1-5-7-5z" fill="#867854"/>
<path transform="translate(454,714)" d="m0 0 3 3v3l-4 1-2 4-11 9-5 6v14h-3l-2-4-1-10 3-1 1-3-5 1-1 2-1-3 7-4 5-2 3-3 1-3 3-1 3-3 4-1v-3h2z" fill="#867854"/>
<path transform="translate(608,421)" d="m0 0 4 1 5 4v2l5 1 4 3v6l-5 11-5 7-5-2-1-9h-2l-5-10v-8l3-5zm0 2-3 3v8l3 6 4 1 2 7h6l2-3 1-8-9-11-3-3z" fill="#D89562"/>
<path transform="translate(470,804)" d="m0 0 2 4 4 7v2l1 4 3 1-4 1h-4l-4 8-6-2h-6l-5 4h-2l2-4 3-3 3-11 3 2 1 5 8 2v-12z" fill="#A4A5A2"/>
<path transform="translate(641,480)" d="m0 0 7 1 1 3h2l6 9 1 4v8l-2 3h-2v-2h-2l-3-8-7-12-1-1z" fill="#877654"/>
<path transform="translate(446,389)" d="m0 0 2 1 1 20v15l-1 14-4 13-5 11 1 9 1 6-2-3-3-6 1-7 6-18 2-14v-40z" fill="#DCC083"/>
<path transform="translate(453,681)" d="m0 0 1 2 4 2 6 7v3l-5 5-4 5-2 1-20 1-2 5-2-3-1-6h22l4-1 4-6v-7h-3v-3l-5-1-3-1-13 1-11 1 3-3 12-1h14z" fill="#867854"/>
<path transform="translate(367,622)" d="m0 0 8 1 5 2 4 6v6l-4 1v2h-2l-1 2h-5l-2-12-2-5z" fill="#E9EBE9"/>
<path transform="translate(634,413)" d="m0 0 4 2 2 2-4 4-6 11h-2l-1 6h-1v-6l-4-2-5-2v-2l-4-2 8-2v2l3-1 6-7z" fill="#C78052"/>
<path transform="translate(832,440)" d="m0 0 9 1 4 5v2l-3 1-2 3-2 7h-4v-2l-4-2 1-6-6-3 3-3h2v-2z" fill="#CBC7BC"/>
<path transform="translate(57,522)" d="m0 0 5 2 3 2 3-1 3 3 1 2v6l-5 3h-8l-2-3-1-12z" fill="#A3715E"/>
<path transform="translate(490,778)" d="m0 0h1v11l-2 4v3h-2l-1 5h-2v2l-2 1h-6l-3 1-2-9v-2l14-2 1-3h3z" fill="#F2D275"/>
<path transform="translate(440,753)" d="m0 0 5 3 5 5 7 4-1 6-4 5-2 9-8 4v-3h2l1-5 2-5v-7l-3-10-4-4z" fill="#969691"/>
<path transform="translate(669,442)" d="m0 0 6 1 5 5 4 7v11l-1 1h-5l-1-1-2-13-6-6-1-4z" fill="#867854"/>
<path transform="translate(213,501)" d="m0 0 7 1 4 2 1 7-3 3-7 2-6-3-1-7z" fill="#E9EBE9"/>
<path transform="translate(660,555)" d="m0 0 2 2v12l-1 10v14l-1 7 21 2 3 2-33-1 6-11z" fill="#D09162"/>
<path transform="translate(468,794)" d="m0 0 4 2 2 9 3 3 3 1 1 2 5 1v1h-7v2h7l2 2v6l-2 1h-6l-4-5v-2l-2-1v-3l-3-5z" fill="#DCC388"/>
<path transform="translate(334,53)" d="m0 0h9v4l-9 2-2 3v7l5 5 4 3-1 2-7-1-5-4-2-6 1-9z" fill="#8C5B52"/>
<path transform="translate(236,732)" d="m0 0 4 2 1 5-5 6-5 2-5-2-4-5v-3l12-3z" fill="#9F6458"/>
<path transform="translate(696,531)" d="m0 0h1l2 11 3 6-4 2-1 14v39h-5l2-4v-59h2z" fill="#AE8158"/>
<path transform="translate(423,807)" d="m0 0 2 1-3 9-2 8v23l2 8 1 6 9-1 2 2-15 1-1-1-1-12v-26l2-10z" fill="#9C8F7F"/>
<path transform="translate(632,465)" d="m0 0 2 1v20l-5 1-5-9-1-6h2l1-4 1-1h5z" fill="#EFC56C"/>
<path transform="translate(608,303)" d="m0 0h2v19h-1v-8l-5-1-10 8-5 5-5 3-2-1 11-9 2-3-6 5-7 1v-7l2 3v2l8-4 7-7z" fill="#B6644B"/>
<path transform="translate(210,111)" d="m0 0h3l-1 7-1 5 2 5 6 3 7-1v4l-5 3-8-2-5-4-2-6v-7l3-6z" fill="#8B504B"/>
<path transform="translate(155,669)" d="m0 0 4 1 9 7v3h-7l-5-1h-5l1 6h2l3 5v2l3 1-2 1-5-5-5-7-1-6 7-4z" fill="#BA7752"/>
<path transform="translate(633,553)" d="m0 0 6 1 1 1v6l-2 5h-2l-2 7-4-1-2-4 1-13h4z" fill="#F4D97C"/>
<path transform="translate(379,43)" d="m0 0 4 1 1 3-6 4-1 1v8l5 5 5 2v2l-2 1h-6l-5-4-3-7v-6l6-9z" fill="#94645E"/>
<path transform="translate(225,374)" d="m0 0 9 4 2 7-3 6h-12l2-5z" fill="#C8C9C9"/>
<path transform="translate(438,47)" d="m0 0 3 1 4 8 5 4 9 2 8-4 4-8 3 4-2 5-5 4-5 2h-12l-9-6-3-7z" fill="#9F867E"/>
<path transform="translate(622,520)" d="m0 0 4 1 9 16 3 5v6l-6-1-4-8-2-8h-2l-1-9-2-1z" fill="#4D8D55"/>
<path transform="translate(7,370)" d="m0 0 5 5 23 6 1 3h-10l-11-3h-6l-3 3-3-1 3-11z" fill="#8B544E"/>
<path transform="translate(559,345)" d="m0 0m-1 1 3 2-11 9-10 9-14 12-5 6-2 2h-4l1-4 8-7 9-8 11-9 10-9z" fill="#AD8057"/>
<path transform="translate(629,86)" d="m0 0h5l-2 4-5 4-2 7 4 6 4 2 1 3-5 1-6-4-4-7 1-7 7-8z" fill="#894F49"/>
<path transform="translate(97,609)" d="m0 0h11l3 3-1 7-5 3h-5l-4-5-2-6 2 1z" fill="#A16658"/>
<path transform="translate(840,346)" d="m0 0 7 2 5 5 1 4-6-2-2-2h-7l-5 5-2 7h-3l-1-7 4-6z" fill="#8F5953"/>
<path transform="translate(436,741)" d="m0 0h7l11 6 3-6 2 1-1 4 1 5 8 5 6 3v4l-9-2-8-8v-2l-4-2-9-5h-5l2 5 3 4-1 2-4-4-2-4z" fill="#D8C08D"/>
<path transform="translate(640,487)" d="m0 0 3 4 4 10 5 8v2h4v3l-3 3h-5l-3-3-3-9z" fill="#C78153"/>
<path transform="translate(476,533)" d="m0 0 4 1 2 9 10 24 12 29 3 5 8 1-3 2h-6l-4-5-6-16-4-9v-3h-2l-9-24z" fill="#AC7E57"/>
<path transform="translate(634,439)" d="m0 0 2 1-1 11-2 6-2 1h-7l1-8 4-10z" fill="#4D8D55"/>
<path transform="translate(226,101)" d="m0 0 2 1v2l2 1-1 6 5 10 3 5-1 3-4-2-7-11-4-8-1-5z" fill="#94625C"/>
<path transform="translate(649,557)" d="m0 0h8v8l-2 10-1 2-4-1-2-7-1-8z" fill="#F4D676"/>
<path transform="translate(397,169)" d="m0 0h3v8l-3 14-4 17h-1v-12l2-19h-4l2-4z" fill="#8E8F8A"/>
<path transform="translate(41,362)" d="m0 0h5l5 5 8 3 7 2-1 4-7-1-16-5-3-3z" fill="#93625D"/>
<path transform="translate(212,394)" d="m0 0 3 1-8 6-9 2-8-2-3-3-3-2z" fill="#C9CACA"/>
<path transform="translate(477,227)" d="m0 0h6l4 4-2 7-2 1-10-2-2-3 1-5z" fill="#FCFCFC"/>
<path transform="translate(627,549)" d="m0 0 2 2-2 5-3 22-1 16 2 7 2 2h-7l-1-3v-12l2-12 2-13 2-10z" fill="#D89562"/>
<path transform="translate(450,521)" d="m0 0 9 3 13 4 8 1 1 1h20l9-1 4-1 4 1-11 3-7 1h-25l-20-8-5-3z" fill="#DCB274"/>
<path transform="translate(540,512)" d="m0 0h2v2l-14 9-10 5-10 2-10 1h-17l-1-2 27-2 10-3 6-2 12-6z" fill="#EEC46B"/>
<path transform="translate(536,519)" d="m0 0 2 1-5 4-7 4-5 3-25 5h-15l-2-3 21-1 15-3 11-4z" fill="#D89562"/>
<path transform="translate(321,499)" d="m0 0 4 1 7 6 5 5 16 9 4 2-1 3h-2v-2l-9-2-14-10-3-3-4-2-1-3-2-1z" fill="#A8AAAB"/>
<path transform="translate(557,412)" d="m0 0 5 5 5 14 2 13 1 18-2 13-6 17-4 4 8-24 1-5v-22l-3-16-6-14z" fill="#D89561"/>
<path transform="translate(677,434)" d="m0 0 8 4 5 7-1 5h-2l-1 5-2-2-3-7-5-5v-4z" fill="#C78052"/>
<path transform="translate(400,711)" d="m0 0h6l8 5 4 2h-7l-3-3-7-1-3 9v12l2 5 7 1 4-1-4 4-2 1h-6l-3-5-1-6v-10l2-9z" fill="#AE8158"/>
<path transform="translate(685,483)" d="m0 0h1l1 11h-2l-2 5-6 9-4 10-1 2h-2l2-10 1-4 3-5h2l2-8z" fill="#D89562"/>
<path transform="translate(559,421)" d="m0 0 2 2 2 9 2 5v6l1 1 1 19-4 16-3 2 3-15v-21l-3-16-2-6z" fill="#EDCA73"/>
<path transform="translate(685,494)" d="m0 0 3 1-2 5-1 2h-3l-3 11 3-2 3 3v2l3 1v2h-14l-2 1 3-9 5-9z" fill="#D17B4F"/>
<path transform="translate(309,480)" d="m0 0h3l10 15h3l3 5 10 8 11 6 12 6-4 1-16-8-11-8-8-6-13-17z" fill="#A26756"/>
<path transform="translate(614,403)" d="m0 0h6l4 3-1 4-4 2-2 5-5 1-1-1v-7z" fill="#B7694D"/>
<path transform="translate(453)" d="m0 0h13l6 5 5 9v3l-4-1-6-8-4-3-9-1-2-3z" fill="#91655C"/>
<path transform="translate(603,423)" d="m0 0 2 1-4 7-4 5-5 1-1 4h-5l1-7 1 3 3-3 3-8z" fill="#C78052"/>
<path transform="translate(697,428)" d="m0 0h1l1 11 5 2-1 3-3 1v3h5l-6 14-2 4-1-8z" fill="#DEC58B"/>
<path transform="translate(391,337)" d="m0 0h17l7 2v1h-22l-10 2-8 4-8 7-6 11-1-3 3-8 5-5 8-6 9-4z" fill="#94948E"/>
<path transform="translate(425,740)" d="m0 0h3l1 2v30l-1 18h-1l-1-17-2-5 1-8 1-5v-11z" fill="#E3A965"/>
<path transform="translate(674,468)" d="m0 0 4 2-5 3-4 8-4 11-1 13-3 5-4 3 2-5 1-1 1-14 3-9 8-14z" fill="#D89562"/>
<path transform="translate(71,286)" d="m0 0 12 5 9 5 1 3-4 1-19-9-2-4z" fill="#A48580"/>
<path transform="translate(723,670)" d="m0 0h2l1 3 7 3 2 2-1 6-2 1v-6l-3-2-10 1-3 3 1 5 3 3v2l-5-1h-3v-10l4-4 6-3z" fill="#B99F82"/>
<path transform="translate(65,326)" d="m0 0h8l4 4-1 8-3 5-6 1-2-3 5-3 1-1v-6l-9-1z" fill="#9E7A73"/>
<path transform="translate(827,291)" d="m0 0h5v3l-16 8-2 6h-3l-1 2-1-6 3-5 9-6z" fill="#8C554D"/>
<path transform="translate(662,514)" d="m0 0h5l2 2-1 6-7 6-4 1-1-5 5-9z" fill="#DDC488"/>
<path transform="translate(621,473)" d="m0 0h1l2 7 2 12 4 11-3 9h-1l-6-30z" fill="#D89562"/>
<path transform="translate(44,440)" d="m0 0 8 3v1l-6 1v2l6 5-1 5-2 2h-4l-2-12h-4l2-5z" fill="#CAC4B2"/>
<path transform="translate(620,74)" d="m0 0h1l-1 9-7 17-4 2-1-3 5-13 6-11z" fill="#8F5D57"/>
<path transform="translate(486,857)" d="m0 0h5l-1 3 5 1v1l-28 1h-15l2-4 2-1 2 1h30z" fill="#A58B72"/>
<path transform="translate(83,251)" d="m0 0 6 1 10 6h8l2 1-2 4-4 1-9-3-11-7z" fill="#95625D"/>
<path transform="translate(651,724)" d="m0 0 3 3v3l5 2 6 5-2 4-1-3-4-2-13-2-1 6h-2l-1-5 3-3 6-2z" fill="#B28F6F"/>
<path transform="translate(474,713)" d="m0 0h6l3 5 1 4v10l-3 8-1-2v-10l-3 1-2-5 5-1-1-5-3-2-5 1z" fill="#867754"/>
<path transform="translate(228,360)" d="m0 0h3l3 3 6 2 1 7-5 1-7-3-1-3z" fill="#8B8C87"/>
<path transform="translate(632,508)" d="m0 0 6 1 1 3v8h-2v2l-3 1-4-5v-8z" fill="#DDC488"/>
<path transform="translate(673,472)" d="m0 0 1 4v16h4v-2h2l-2 5-4 5-5-3 1-9 2-15z" fill="#EBB665"/>
<path transform="translate(580,773)" d="m0 0h2l-1 3h-2l1 5 5 3-2 1-11-2-2-1v2h-2l-3 4-1-5 4-4 6-1 1-4z" fill="#AF8C6C"/>
<path transform="translate(679,471)" d="m0 0 9 1 1 5-7 14h-2l1-5-1-2 2-4v-3l-5-1 1-4z" fill="#DDC082"/>
<path transform="translate(434,465)" d="m0 0 1 4h2l4 9 2 8v12l-5 10-7 5-8 4-2-1 6-4 9-5 4-7 1-6-2-12-4-10z" fill="#A67157"/>
<path transform="translate(359,50)" d="m0 0 4 1 3 15v7h-3l-2-5-3-14z" fill="#8B564E"/>
<path transform="translate(726,681)" d="m0 0 3 1 1 6-4 5-6-1-2-8h2v-2z" fill="#9F6356"/>
<path transform="translate(489,827)" d="m0 0 2 2 1 7 4 1 2 1-2 5-5 1-4-2v-6l-1-7z" fill="#ECB766"/>
<path transform="translate(696,430)" d="m0 0h1v13l-3 7-5 9-1 3h-2l-1-7 2-5 3-3 1-2h3z" fill="#D89562"/>
<path transform="translate(677,529)" d="m0 0 6 1 3 3 7 3 2 7v5l-2-1-2-8-8-5h-6l-2 4-3 5-2-1z" fill="#AE8158"/>
<path transform="translate(170,398)" d="m0 0h6v7l4 2h-5l-1 2-6-1-1 3h-1v-6l2-6z" fill="#8E8F8A"/>
<path transform="translate(305,786)" d="m0 0 7 1v3h2v5l-5 3-5-3-2-4v-3z" fill="#8B4740"/>
<path transform="translate(399,707)" d="m0 0h7l2 1v2l4 1 3 4 6 1v1h-7l-8-5h-6l-3 5-2 12h-1v-10l3-9z" fill="#DDBB7E"/>
<path transform="translate(561,481)" d="m0 0 1 3-5 10-2 6-4 4-1 2h-2l-2 4-4 2 1-4 8-9 8-17z" fill="#EFC56C"/>
<path transform="translate(494,615)" d="m0 0h6l5 8 5 9-2 4-10-15v-2l-5-2z" fill="#CACBCB"/>
<path transform="translate(520,384)" d="m0 0 10 2 8 4v2h2v2l6 2 3 5-4-2-14-8-9-3-5-1z" fill="#D89562"/>
<path transform="translate(67,306)" d="m0 0 5 1 12 5 1 3-1 2-5-1-14-6v-2h2z" fill="#99706B"/>
<path transform="translate(470,804)" d="m0 0 2 4 4 7v2l1 4 3 1-4 1-7 1v-12z" fill="#C3C4C3"/>
<path transform="translate(679,533)" d="m0 0 5 1 7 4 3 9-1 4-4-9-1-3-6-2-6 4-3 5-4 2 2-5 6-9z" fill="#C78153"/>
<path transform="translate(658,230)" d="m0 0h2l1 19v13l-3-2-1-3v-20z" fill="#C3885C"/>
<path transform="translate(454,714)" d="m0 0 3 3v3l-4 1-2 4-8 6h-4l1-3 2-4 3-1 3-3 4-1v-3h2z" fill="#9D6255"/>
<path transform="translate(66,525)" d="m0 0 4 1 2 4v6l-5 3h-6l1-4h2l1-9z" fill="#A47E71"/>
<path transform="translate(818,521)" d="m0 0 5 1 4 2v3l-10 1-6 5h-3l2-4 2-3z" fill="#9C9C96"/>
<path transform="translate(330,400)" d="m0 0h20l-4 2-17 1-15 9-9 8v-3l10-9 10-6z" fill="#94948E"/>
<path transform="translate(623,463)" d="m0 0h11l1 3-9 3-1 3h-2l2 6-1 4-3-9v-8z" fill="#DCBC7F"/>
<path transform="translate(419,340)" d="m0 0 7 6 7 9 6 12 3 10-1 3-5-13-7-13-9-10-3-3z" fill="#9D9E9B"/>
<path transform="translate(227,726)" d="m0 0 4 3 4 2-4 2-8 1-2 2v7l-4-4v-6l8-5z" fill="#C2BFB4"/>
<path transform="translate(458,702)" d="m0 0 1 4v6l1 1h6l3-3 4-2h8l4 8v5l-2-4-3-5v-2l-11 4-2 2h-7l-3-3v-9z" fill="#DCB97D"/>
<path transform="translate(667,471)" d="m0 0 4 1-6 12-2 5h-2v-7l-1-3 4-7z" fill="#D5794E"/>
<path transform="translate(401,677)" d="m0 0 4 2 4 10-2 2-4-1-3-3-1-7z" fill="#898A87"/>
<path transform="translate(491,571)" d="m0 0 2 3 6 14 5 13 2 2 9 1v1h-11l-6-10-7-19z" fill="#847854"/>
<path transform="translate(434,510)" d="m0 0 2 1-8 6-7 4-8 4-5 1-12 1v-1l18-5 14-8z" fill="#9FA19E"/>
<path transform="translate(541,397)" d="m0 0 5 2 6 4 5 6 2 6 4 10h-2l-7-13-9-10z" fill="#DBA56B"/>
<path transform="translate(476,710)" d="m0 0h4l4 7 1 4v15l-3 6-1-3 2-7v-10l-3-9-8 2-4 2-3-1 8-5z" fill="#AE8158"/>
<path transform="translate(697,417)" d="m0 0 10 1 3 3-2 18-5 1 2-12 2-4-1-4-9-1z" fill="#C2C1B9"/>
<path transform="translate(438,47)" d="m0 0 3 1 4 8 5 4 4 2-1 2-7-1-5-4-3-7z" fill="#8D5E56"/>
<path transform="translate(423,807)" d="m0 0 2 1-3 9-2 8-1 19-2-4v-15l2-10z" fill="#A1A19C"/>
<path transform="translate(694,524)" d="m0 0 2 1v15h-2l-2-4-4-2v-5z" fill="#4D8D55"/>
<path transform="translate(468,794)" d="m0 0 4 2 2 9 3 3 3 1 1 2 5 1v1h-7l-1 2-5-3-3-8z" fill="#DBBD83"/>
<path transform="translate(714,471)" d="m0 0 2 2 2 6 1 18-2 1-4-19-2-5h2z" fill="#B1B3B3"/>
<path transform="translate(97,609)" d="m0 0h3v2l3 1 2 3 2 1-4 5-3 1-4-5-2-6 2 1z" fill="#873F3B"/>
<path transform="translate(694,468)" d="m0 0 4 1 16 1-1 4-12 1v-2l-5-2-5 4 1-5z" fill="#929087"/>
<path transform="translate(155,669)" d="m0 0 4 1 7 5v1l-14 1-2 1v5l-2-1-1-6 7-4z" fill="#C5C7C6"/>
<path transform="translate(442,380)" d="m0 0h1l2 11 1 12v14l-2 1-2-22z" fill="#A8785B"/>
<path transform="translate(91,613)" d="m0 0 3 1 1 3 5 3 5 1 4-2v5h-3v5h-1v-5h-8l-5-5z" fill="#B69A8F"/>
<path transform="translate(696,531)" d="m0 0h1l2 11 3 6-4 2-1 14h-1l-2-24h2z" fill="#9C9D98"/>
<path transform="translate(596,445)" d="m0 0 6 2 1 2-7 2-4 4h-2v3h-2v-7l1-3z" fill="#C97F52"/>
<path transform="translate(234,479)" d="m0 0 4 1 3 5 3 11h-3l-6-11-2-2z" fill="#8F8F8A"/>
<path transform="translate(446,389)" d="m0 0 2 1v20l-1 19h-1l-1-26v-13z" fill="#DCBC80"/>
<path transform="translate(475,764)" d="m0 0 5 2 6 9 1 6v5l-5 5-8 1 4-2 5-3v-12l-6-8z" fill="#C6C7C7"/>
<path transform="translate(717,433)" d="m0 0h5l-1 4-10 7-3-1v-4z" fill="#E2CF97"/>
<path transform="translate(653,737)" d="m0 0 4 2-1 9-3 2-4-1v-7l1-4z" fill="#8D4C47"/>
<path transform="translate(817,527)" d="m0 0h10v5l-4 1v-2h-2l-2-2-4 5-1 3-5-2v-2z" fill="#AD845E"/>
<path transform="translate(610,369)" d="m0 0h1l1 15 5-3 2 1-5 7-4 1-1-1v-18z" fill="#873F3B"/>
<path transform="translate(95,601)" d="m0 0h5l5 6h-13l-1 6-3-2 2-5z" fill="#D6C297"/>
<path transform="translate(284,625)" d="m0 0h2l-1 8-4 8-3 2-1-4v-3l2-1 1-4h2l1-4z" fill="#94948E"/>
<path transform="translate(600,69)" d="m0 0 4 2 3 5v8h-4l-3-10z" fill="#A3877D"/>
<path transform="translate(818,514)" d="m0 0 5 2 1 3-5 1v-2h-2l1 3-5 3h-5l1-3 4-3 2 1 2-4z" fill="#DEDAC5"/>
<path transform="translate(632,358)" d="m0 0h2v2l5 1-4 8-5 2 1-11z" fill="#873F3B"/>
<path transform="translate(427,353)" d="m0 0 3 1 9 17 3 9v7l-2-3-3-11-7-13z" fill="#A16556"/>
<path transform="translate(469,36)" d="m0 0 4 2 2 5v11l-3-1-2-10-2-5z" fill="#89514A"/>
<path transform="translate(313,408)" d="m0 0 2 1-10 9-2 5-3 5h-2l-2 11h-1v-8l6-11 8-9z" fill="#A6A7A7"/>
<path transform="translate(844,326)" d="m0 0h2l2 4v8l-3 2h-3l1-13z" fill="#93605B"/>
<path transform="translate(468,857)" d="m0 0h18l3 2-1 1h-22l2-1z" fill="#C8C9C9"/>
<path transform="translate(197,345)" d="m0 0 7 1 8 5 5 4 1 4-7-4-14-9z" fill="#C8C9C9"/>
<path transform="translate(399,887)" d="m0 0 4 1 5 6 5 4 2 1 2 4 2 1-1 2-8-6-10-10z" fill="#F0C870"/>
<path transform="translate(509,608)" d="m0 0 27 1-1 2-8 1-10-1h-9z" fill="#979893"/>
<path transform="translate(598,416)" d="m0 0 5 1-1 4-4 3-6-2v-4z" fill="#B8654B"/>
<path transform="translate(362,355)" d="m0 0 1 2-2 4-2 8-5 16-1 6h-1v-8l4-14 5-13z" fill="#A1A3A1"/>
<path transform="translate(582,75)" d="m0 0 4 1-6 12-4 1 3-10z" fill="#8E5F57"/>
<path transform="translate(785,604)" d="m0 0 6 1 1 4-4-1-11 2-4-1 7-4z" fill="#BAA185"/>
<path transform="translate(436,741)" d="m0 0h7l11 7 2 3-4-2-9-5h-5l2 5 3 4-1 2-4-4-2-4z" fill="#B5B6B4"/>
<path transform="translate(628,551)" d="m0 0h11l20 3 1 1v5l-2-4-21-2h-7l-2-1z" fill="#DCB275"/>
<path transform="translate(450,521)" d="m0 0 9 3 13 4 8 1-4 3-7-1-9-4-10-5z" fill="#DDC488"/>
<path transform="translate(833,451)" d="m0 0h6v7l-5 1v-2l-4-2v-3z" fill="#869078"/>
<path transform="translate(512,226)" d="m0 0 8 2v2l9 3 11 7-2 1-26-13z" fill="#94948E"/>
<path transform="translate(696,470)" d="m0 0 1 2 5 1-1 3-5 3h-3v-2h-2l2-5z" fill="#4F8D56"/>
<path transform="translate(608,426)" d="m0 0 4 1 4 5-2 4h-3v-2h-3l-1-6z" fill="#DDC488"/>
<path transform="translate(559,345)" d="m0 0m-1 1 3 2-11 9-6 5-3-1 13-12z" fill="#A36A56"/>
<path transform="translate(65,326)" d="m0 0h8l3 2v6l-3 1-2-4-9-1z" fill="#A68B83"/>
<path transform="translate(414,692)" d="m0 0 5 1 3 5-8-1-4 1h-6l1-3h5z" fill="#DCC084"/>
<path transform="translate(453)" d="m0 0h13l-1 5-11-1-2-3z" fill="#874841"/>
<path transform="translate(402,526)" d="m0 0 3 1-10 3h-17l-2-1v-2h20z" fill="#AAACAD"/>
<path transform="translate(306,480)" d="m0 0 7 6 8 10 1 3h-3l-5-7-7-7v-3l-2-1z" fill="#A1A2A0"/>
<path transform="translate(45,451)" d="m0 0h6l1 5-3 3h-4l-1-7z" fill="#917163"/>
<path transform="translate(385,336)" d="m0 0m-3 1h3v2l-9 4-7 5-5 5 2-5 7-7 5-3z" fill="#AAACAD"/>
<path transform="translate(654,736)" d="m0 0h5l4 4-6 7-3-3 2-1v-4l-2-1z" fill="#A06458"/>
<path transform="translate(487,784)" d="m0 0 1 4-5 5-13 2-2-1v-3h11l5-3z" fill="#A7937F"/>
<path transform="translate(234,731)" d="m0 0 3 1-3 3-12 2v2h-2l1-4 2-2z" fill="#B68058"/>
<path transform="translate(453,681)" d="m0 0 1 2 2 1h-16l-12 2h-5l3-3 12-1h14z" fill="#AE8158"/>
<path transform="translate(615,407)" d="m0 0 4 2v5l-3 4h-4l1-8z" fill="#A06155"/>
<path transform="translate(824,327)" d="m0 0h3l-1 5-1 2h-2v7l-2-1-2-8z" fill="#966661"/>
<path transform="translate(416,665)" d="m0 0 6 1 3 1 3-1v3l-5 1-5-2-4 2h-6l-1-2 7-2z" fill="#94948E"/>
<path transform="translate(497,584)" d="m0 0h2l7 16 1 1 8 1-3 2h-6l-4-5-5-13z" fill="#A97757"/>
<path transform="translate(694,308)" d="m0 0h2v10l-2-3-2 2h-4l-5 5-2-1 7-7h2v-2h2z" fill="#B69276"/>
<path transform="translate(540,512)" d="m0 0h2v2l-14 9-6 3-3-1 5-4 9-4z" fill="#EFC56C"/>
<path transform="translate(681,511)" d="m0 0 4 3v2l3 1v2h-9l-3-2z" fill="#D5794E"/>
<path transform="translate(603,507)" d="m0 0 3 1-1 4-9 8-3-1 8-10h2z" fill="#C78153"/>
<path transform="translate(677,476)" d="m0 0h5l1 4-3 5h-3l-1-2v-6z" fill="#F6E08A"/>
<path transform="translate(609,300)" d="m0 0 3 1v17l-2 1v-16l-5 2 1-3z" fill="#B9654B"/>
<path transform="translate(580,773)" d="m0 0h2l-1 3h-2l1 6-12-2 4-2h2l1-4z" fill="#D1CEC1"/>
<path transform="translate(466,690)" d="m0 0 11 6 3 3 1 4-5-2-10-9z" fill="#FAEEA6"/>
<path transform="translate(695,587)" d="m0 0h2v16h-5l2-4v-11z" fill="#AE9176"/>
<path transform="translate(694,405)" d="m0 0h1l2 25h-3l-1-1v-20z" fill="#C68153"/>
<path transform="translate(308,43)" d="m0 0 4 1-1 11h-4z" fill="#894D47"/>
<path transform="translate(474,774)" d="m0 0 4 1 2 4-1 4-4-1-2-2z" fill="#B2B4B3"/>
<path transform="translate(287,86)" d="m0 0h4l2 5v7l-5-5z" fill="#966D67"/>
<path transform="translate(559,421)" d="m0 0 2 2 2 9 2 5v7l-2 1-3-16-2-6z" fill="#EBCB78"/>
<path transform="translate(514,386)" d="m0 0 12 2 12 6-3 1-10-4-11-3z" fill="#DCB275"/>
<path transform="translate(580,214)" d="m0 0 7 3 1-2v3h-3l1 5-5-2 1 5-2 2z" fill="#A2A3A3"/>
<path transform="translate(320,652)" d="m0 0h11l5 2v1h-17l-5 3 2-4z" fill="#94948E"/>
<path transform="translate(368,624)" d="m0 0 5 1 3 2-1 5-1 2h-2z" fill="#FDFCFC"/>
<path transform="translate(295,449)" d="m0 0h1l3 14 3 7-1 3-1-3-2-1-3-9-1-7z" fill="#AAACAD"/>
<path transform="translate(72,273)" d="m0 0 4 2-1 5-4 7-3-1 2-3z" fill="#98625C"/>
<path transform="translate(274,223)" d="m0 0h3l2 9v3h-2l-5-8z" fill="#94948F"/>
<path transform="translate(647,169)" d="m0 0 10 1 1 1v8h-2l-4-7-5-2z" fill="#C48D61"/>
<path transform="translate(420,852)" d="m0 0 2 4 1 6 9-1 2 2h-14l-1-7z" fill="#ADAEAB"/>
<path transform="translate(818,521)" d="m0 0 5 1 3 2-11 3-4 2 1-3z" fill="#D1C7AD"/>
<path transform="translate(662,511)" d="m0 0h5l2 2-1 3-1-1h-5l-5 9-1-3 4-8z" fill="#EFC56C"/>
<path transform="translate(608,303)" d="m0 0h2v19h-1l-1-13-4-1z" fill="#873F3B"/>
<path transform="translate(612,205)" d="m0 0h15v18h-1l-2-17h-12z" fill="#873F3B"/>
<path transform="translate(418,690)" d="m0 0h2l1 5 4 2 3 5 1 7-2-1-3-10-4-2-4-5z" fill="#AE8158"/>
<path transform="translate(525,376)" d="m0 0 2 1-6 7-2 2h-4l1-4 7-5z" fill="#AE8158"/>
<path transform="translate(419,340)" d="m0 0 7 6 6 7-1 2-5-5-9-8z" fill="#A1A3A1"/>
<path transform="translate(64,329)" d="m0 0 4 1-7 6h-6l1-3z" fill="#85453E"/>
<path transform="translate(49,299)" d="m0 0 10 2-2 5-8-3z" fill="#926B61"/>
<path transform="translate(657,579)" d="m0 0h1v13l-4 7-3-1 1-2h2z" fill="#EAAE61"/>
<path transform="translate(508,42)" d="m0 0 3 1-1 15-2-4v-3l-2-1z" fill="#AB9A92"/>
<path transform="translate(484,736)" d="m0 0h1l-1 8h-2v2l-6 1-5-4 1-2 2 2h6l3-4z" fill="#E4B56C"/>
<path transform="translate(437,669)" d="m0 0h6l-4 2-4 4-3 6 2 2h-6l1-4z" fill="#DCBA7E"/>
<path transform="translate(687,534)" d="m0 0 5 1 2 2 1 11-2-1-2-8-4-3z" fill="#A67F57"/>
<path transform="translate(553,503)" d="m0 0 1 3-8 9-5 4-3-1 10-9 1-2h2z" fill="#D89562"/>
<path transform="translate(152,662)" d="m0 0h9l5 2-1 3-2-1-1-1h-12l-1-2z" fill="#CACBCB"/>
<path transform="translate(476,533)" d="m0 0 4 1 2 9 3 8-1 2-4-9z" fill="#AE8158"/>
<path transform="translate(512,528)" d="m0 0h6l-3 2-15 3h-4v-2l5-1 9-1z" fill="#DFB16F"/>
<path transform="translate(414,521)" d="m0 0h2l-1 3-4 2-15 1v-1z" fill="#9A9B97"/>
<path transform="translate(636,432)" d="m0 0h1v8h-7l2-6z" fill="#9F6156"/>
<path transform="translate(374,343)" d="m0 0m-1 1m-1 1m-1 1v3l-6 7-4 8-1-3 3-8 5-5z" fill="#95958F"/>
<path transform="translate(714,167)" d="m0 0 5 1 2 9-4-1z" fill="#9A6D68"/>
<path transform="translate(457,815)" d="m0 0 3 2 1 5 2 2-8 1z" fill="#AAAFAB"/>
<path transform="translate(57,522)" d="m0 0 5 2 2 1v6l-1-4-5 1-2 2v-6z" fill="#B19A82"/>
<path transform="translate(490,778)" d="m0 0h1v11l-2 5-6-1 2-1 1-3h3z" fill="#EBBF6C"/>
<path transform="translate(304,779)" d="m0 0h8l-3 2-8 3-3 2-2 4v-6z" fill="#D2C2A1"/>
<path transform="translate(155,673)" d="m0 0h6l-2 2-9 3v5l-2-1-1-6 3-2z" fill="#D3C39C"/>
<path transform="translate(787,584)" d="m0 0 4 2-2 1-3 6h-3l-4-2 5-2z" fill="#AEAEAC"/>
<path transform="translate(64,506)" d="m0 0 3 3 5 6-12-4 1-3z" fill="#B8B9B7"/>
<path transform="translate(627,467)" d="m0 0h4l1 4-2 3-4-1-1-4z" fill="#FAEEA3"/>
<path transform="translate(188,329)" d="m0 0 4 1 2 5-6 1-1-1v-5z" fill="#90918C"/>
<path transform="translate(199,149)" d="m0 0h2l-1 4-3 2h-6l1-4z" fill="#894641"/>
<path transform="translate(461,32)" d="m0 0 6 1 3 3-3 3-6-3z" fill="#8F645A"/>
<path transform="translate(495,854)" d="m0 0 4 1-3 6-6-1 1-4h4z" fill="#D7C28E"/>
<path transform="translate(671,732)" d="m0 0h7v3l-3 1-1 6h-2z" fill="#9EA29D"/>
<path transform="translate(444,658)" d="m0 0 4 1 6 2-1 3-9-1-1-4z" fill="#AAACAD"/>
<path transform="translate(66,528)" d="m0 0 6 2v5l-4 1-2-2z" fill="#904E47"/>
<path transform="translate(426,755)" d="m0 0h1v18l-2-2-1-8z" fill="#EFC56C"/>
<path transform="translate(216,728)" d="m0 0v3l-2 1-3 8-2-4-3-4h5z" fill="#C1C1BD"/>
<path transform="translate(659,560)" d="m0 0h1v10l-1 9h-1l-1-5v-7z" fill="#EBB263"/>
<path transform="translate(716,483)" d="m0 0 2 2 1 4v8l-2 1-2-14z" fill="#CBCDCC"/>
<path transform="translate(302,471)" d="m0 0h2l6 11v3l-7-7z" fill="#9B9B98"/>
<path transform="translate(563,466)" d="m0 0h3l-2 10-3 5-1-2z" fill="#F0CC71"/>
<path transform="translate(88,294)" d="m0 0 4 2 1 3-4 1-7-3 4-2z" fill="#ABA19A"/>
<path transform="translate(827,291)" d="m0 0h5v3l-9 3 1-5z" fill="#A17872"/>
<path transform="translate(364,63)" d="m0 0 2 3v7h-3l-2-6z" fill="#BFBCB7"/>
<path transform="translate(218,732)" d="m0 0 4 1-1 8-1 2-3-4v-6z" fill="#D4C29C"/>
<path transform="translate(92,606)" d="m0 0 14 1 1 2h-15l-1 4v-6z" fill="#B47E55"/>
<path transform="translate(685,494)" d="m0 0 3 1-2 5-1 2h-3v2h-2l2-5z" fill="#D5794E"/>
<path transform="translate(60,280)" d="m0 0 4 2v5l-5-1-1-4z" fill="#A67470"/>
<path transform="translate(486,776)" d="m0 0 4 2v9l-1 2-2-1z" fill="#CEA26B"/>
<path transform="translate(475,764)" d="m0 0 5 2 6 9 1 4h-2l-5-9z" fill="#BABCBC"/>
<path transform="translate(226,737)" d="m0 0h5l1 3 2 2-4 2v-2h-3z" fill="#873F3B"/>
<path transform="translate(95,601)" d="m0 0h5l-3 2-2 1 1 2-4 1-1 6-3-2 2-5z" fill="#D0C4A8"/>
<path transform="translate(650,599)" d="m0 0h3l-2 4h-12l4-2z" fill="#DCB275"/>
<path transform="translate(52,331)" d="m0 0 4 1v3h7l-1 2h-8l-4-3v-2z" fill="#96756A"/>
<path transform="translate(595,315)" d="m0 0 2 1-7 7-7 4 2-4z" fill="#873F3B"/>
<path transform="translate(426,798)" d="m0 0 1 3 2 1-3 6h-3l-2 2 1-4z" fill="#CEAE7D"/>
<path transform="translate(478,708)" d="m0 0h3l4 8v5l-2-4-3-5v-2l-7 1 1-2z" fill="#DCB679"/>
<path transform="translate(813,530)" d="m0 0h5l-3 4-1 3-5-2v-2z" fill="#A37160"/>
<path transform="translate(60,515)" d="m0 0 7 1 1 3-9-1-4 1v-2z" fill="#D7D9D8"/>
<path transform="translate(638,509)" d="m0 0 2 1 1 9-2 4h-4l2-1v-2h2z" fill="#EFC56C"/>
<path transform="translate(561,481)" d="m0 0 1 3-3 7-5 3 2-5 3-7z" fill="#F1CC70"/>
<path transform="translate(619,482)" d="m0 0 2 1 2 9-1 4-1-3-2-1-1-5z" fill="#D5794E"/>
<path transform="translate(625,471)" d="m0 0 2 2h3l2-2v6l-1 1h-5z" fill="#F4D676"/>
<path transform="translate(601,457)" d="m0 0h6l3 3v2h-5l-4-4z" fill="#9F6156"/>
<path transform="translate(715,438)" d="m0 0 3 1-7 5-3-1v-4z" fill="#F7EEB9"/>
<path transform="translate(651,724)" d="m0 0 3 3v3l3 1-1 2-8-1 2-2z" fill="#CDCAC0"/>
<path transform="translate(344,512)" d="m0 0 17 8-4 1-12-6z" fill="#A06456"/>
<path transform="translate(549,502)" d="m0 0 1 4h-2l-2 4-4 2 1-4z" fill="#F1CD71"/>
<path transform="translate(566,468)" d="m0 0 1 4-4 12-2-4 3-8z" fill="#E7B267"/>
<path transform="translate(445,417)" d="m0 0h1v13l-2 3-1-11z" fill="#AD7E57"/>
<path transform="translate(541,397)" d="m0 0 5 2 4 4 3 4-1 2-11-11z" fill="#E3B56E"/>
<path transform="translate(491,863)" d="m0 0 4 1-5 9-2-1 1-4z" fill="#EDC670"/>
<path transform="translate(304,768)" d="m0 0h5l-2 6-5 3v-4h2v-2h2v-2z" fill="#CDCECE"/>
<path transform="translate(239,741)" d="m0 0v3l-4 6-4 1 1-4z" fill="#B0A59A"/>
<path transform="translate(351,390)" d="m0 0h1v9l-1 1h-9l1-2 7-2z" fill="#A6A8A8"/>
<path transform="translate(225,397)" d="m0 0 7 1-2 4h-5l-1-4z" fill="#92928D"/>
<path transform="translate(56,372)" d="m0 0h8l2 3-5 1-5-2z" fill="#84463E"/>
<path transform="translate(65,263)" d="m0 0 6 2v4l-7-2z" fill="#835147"/>
<path transform="translate(454,714)" d="m0 0 3 3v3l-4 1-1 2-2-3 2-1v-3h2z" fill="#867854"/>
<path transform="translate(624,450)" d="m0 0 1 3-1 5 2 1-6 1 1-6z" fill="#867854"/>
<path transform="translate(839,442)" d="m0 0h3l-1 5-5 2v-5z" fill="#DDC488"/>
<path transform="translate(532,368)" d="m0 0 2 1-6 7-5 2 2-4z" fill="#A36A56"/>
<path transform="translate(471,808)" d="m0 0 2 1 3 6-4 3-1-1z" fill="#A7A7A6"/>
<path transform="translate(150,683)" d="m0 0h2v2h2l3 5v2l3 1-2 1-5-5-3-4z" fill="#CA8D6E"/>
<path transform="translate(61,528)" d="m0 0h2l1 7-2-1-1-1zm-2 7h3l1 3-4 1z" fill="#8E4B46"/>
<path transform="translate(443,426)" d="m0 0h1l1 12-2 2-2 4 1-8z" fill="#A56E56"/>
<path transform="translate(610,417)" d="m0 0m-7 1 6 1-4 2v2l-5 1-1-2z" fill="#AE8158"/>
<path transform="translate(81,292)" d="m0 0 6 1 1 2-2 1h-6l-1-3z" fill="#87453E"/>
<path transform="translate(600,69)" d="m0 0 4 2 1 4-3 2-2-3z" fill="#93796B"/>
<path transform="translate(537,67)" d="m0 0 4 1-2 4-6-1z" fill="#8A4F47"/>
<path transform="translate(455,858)" d="m0 0 9 2-2 2h-10z" fill="#A8A9A6"/>
<path transform="translate(473,739)" d="m0 0 3 2 5-1-1 4h-6l-3-4z" fill="#9A7C56"/>
<path transform="translate(729,675)" d="m0 0 4 1 2 2-1 6-2 1v-6l-3-2z" fill="#AD9278"/>
<path transform="translate(279,635)" d="m0 0h3l-2 7h-3v-6z" fill="#8E8F8A"/>
<path transform="translate(91,613)" d="m0 0 3 1 3 6v3l-3-1-3-6z" fill="#C09B73"/>
<path transform="translate(691,599)" d="m0 0h3l-2 4h-11l2-2 7-1z" fill="#C78153"/>
<path transform="translate(628,551)" d="m0 0h11l-1 3h-8l-2-1z" fill="#DCBC7F"/>
<path transform="translate(699,470)" d="m0 0h15l-1 3-14-2z" fill="#9F9F9B"/>
<path transform="translate(621,68)" d="m0 0h4l-1 4-3 2-1-5z" fill="#87685B"/>
<path transform="translate(355,39)" d="m0 0 5 1 1 3h-5z" fill="#99635E"/>
<path transform="translate(723,434)" d="m0 0 3 1v7h-2z" fill="#F8F4D8"/>
<path transform="translate(147,668)" d="m0 0 3 1-1 2-4 1z" fill="#DADBDA"/>
<path transform="translate(70,520)" d="m0 0 5 2-1 2z" fill="#E9EBE9"/>
<path transform="translate(101,598)" d="m0 0 5 1v2l-5-2z" fill="#E9EBE9"/>
<path transform="translate(291,779)" d="m0 0 4 1-1 2-4-2z" fill="#E9EBE9"/>
<path transform="translate(707,444)" d="m0 0 2 1-4 2v-2z" fill="#F8F2C7"/>
<path transform="translate(231,722)" d="m0 0h2l-1 3z" fill="#E9EBE9"/>
<path transform="translate(497,627)" d="m0 0 3 1-1 2z" fill="#E9EBE9"/>
<path transform="translate(502,631)" d="m0 0h2v2h-2z" fill="#D8DAD9"/>
<path transform="translate(780,599)" d="m0 0 2 1h-3z" fill="#EAE8D5"/>
<path transform="translate(590,782)" d="m0 0h2l-1 2z" fill="#DEDFDE"/>
<path transform="translate(218,725)" d="m0 0 3 1z" fill="#D3D4D3"/>
<path transform="translate(734,669)" d="m0 0h2l-1 2z" fill="#E9EBE9"/>
<path transform="translate(719,668)" d="m0 0 2 2h-2z" fill="#EFEEE1"/>
<path transform="translate(308,776)" d="m0 0" fill="#E9EBE9"/>
<path transform="translate(500,630)" d="m0 0 2 1z" fill="#E9EBE9"/>
<path transform="translate(592,784)" d="m0 0" fill="#C8C9C9"/>
<path transform="translate(589,781)" d="m0 0" fill="#E9EBE9"/>
<path transform="translate(304,777)" d="m0 0" fill="#E9EBE9"/>
<path transform="translate(296,774)" d="m0 0" fill="#E9EBE9"/>
<path transform="translate(211,744)" d="m0 0" fill="#E9EBE9"/>
<path transform="translate(214,740)" d="m0 0" fill="#E9EBE9"/>
<path transform="translate(153,668)" d="m0 0" fill="#E9EBE9"/>
<path transform="translate(152,667)" d="m0 0" fill="#E9EBE9"/>
<path transform="translate(157,665)" d="m0 0" fill="#E9EBE9"/>
<path transform="translate(504,633)" d="m0 0" fill="#C8C9C9"/>
<path transform="translate(495,626)" d="m0 0" fill="#E9EBE9"/>
<path transform="translate(494,625)" d="m0 0" fill="#E9EBE9"/>
<path transform="translate(493,624)" d="m0 0" fill="#E9EBE9"/>
<path transform="translate(776,601)" d="m0 0" fill="#E9EBE9"/>
<path transform="translate(69,519)" d="m0 0" fill="#E9EBE9"/>
</svg>
